<?xml version="1.0" encoding="UTF-8"?>
<svg id="Capa_1" xmlns="http://www.w3.org/2000/svg" version="1.1" viewBox="0 0 70 70">
  <!-- Generator: Adobe Illustrator 29.2.1, SVG Export Plug-In . SVG Version: 2.1.0 Build 116)  -->
  <defs>
    <style>
      .st0, .st1 {
        fill: #e0e0e0;
      }

      .st1 {
        font-size: 3.1px;
        letter-spacing: .2em;
      }

      .st1, .st2, .st3, .st4, .st5, .st6, .st7, .st8, .st9, .st10, .st11 {
        isolation: isolate;
      }

      .st1, .st3, .st4, .st5, .st6, .st7, .st8, .st9, .st10, .st11 {
        font-family: Montserrat-Bold, Montserrat;
        font-weight: 700;
      }

      .st12 {
        fill: #17eba0;
      }

      .st13 {
        stroke: #e0e0e0;
      }

      .st13, .st14 {
        fill: none;
        stroke-miterlimit: 10;
        stroke-width: .7px;
      }

      .st3 {
        font-size: 3.5px;
      }

      .st3, .st4, .st5, .st6, .st7, .st15, .st8, .st9, .st10, .st11 {
        fill: #a3a3a3;
      }

      .st4 {
        font-size: 3.5px;
      }

      .st5 {
        font-size: 3.5px;
      }

      .st6 {
        font-size: 3.5px;
      }

      .st7 {
        font-size: 3.5px;
      }

      .st14 {
        stroke: #a3a3a3;
      }

      .st8 {
        font-size: 3.5px;
      }

      .st9 {
        font-size: 3.5px;
      }

      .st10 {
        font-size: 3.5px;
      }

      .st11 {
        font-size: 3.5px;
      }
    </style>
  </defs>
  <g id="Capa_11" data-name="Capa_1">
    <circle class="st13" cx="35.2" cy="35.3" r="24.8"/>
    <circle class="st14" cx="35.2" cy="35.3" r="32.6"/>
    <g>
      <g id="Path_1886">
        <path class="st0" d="M21.2,50.7h2c.5,0,1,0,1.4-.2.4-.1.8-.3,1.2-.5.3-.2.6-.5.8-.8.2-.3.3-.6.3-1,0-.3,0-.7-.3-1-.2-.3-.5-.6-.8-.8-.3-.2-.7-.4-1.2-.5-.5-.1-1-.2-1.4-.2h-2v4.8h0ZM18.8,52.1v-7.7h4.4c.8,0,1.6,0,2.4.3.7.2,1.4.5,1.9.8.5.3,1,.8,1.3,1.2.3.5.5,1,.5,1.5,0,.5-.2,1-.5,1.5-.3.5-.8.9-1.3,1.2-.6.4-1.2.6-1.9.8-.8.2-1.6.3-2.4.3h-4.4Z"/>
      </g>
      <g id="Path_1887">
        <path class="st0" d="M30.6,52.1v-7.7h6c.7,0,1.4,0,2.1.3.6.2,1,.5,1.4.8.3.4.5.8.5,1.3,0,.4-.2.9-.5,1.2-.4.4-.8.7-1.4.8-.6.2-1.3.3-2.1.3h-3.5v2.9h-2.5ZM33.1,47.9h3.2c.5,0,.9,0,1.3-.3.3-.2.5-.5.5-.8,0-.3-.2-.6-.5-.8-.4-.2-.8-.3-1.3-.3h-3.2v2.1Z"/>
      </g>
      <g id="Path_1888">
        <path class="st0" d="M41.8,52.1v-7.7h5.6c.7,0,1.4,0,2.1.3.6.2,1,.5,1.4.8.3.4.5.8.5,1.2,0,.5-.2.9-.6,1.3-.4.4-1,.7-1.6.8l2.6,3.2h-2.7l-2.3-2.9h-2.6v2.9h-2.4ZM44.2,47.9h3c.5,0,.9,0,1.3-.3.3-.2.5-.4.5-.7,0-.3-.2-.6-.5-.7-.4-.2-.8-.3-1.3-.3h-3v2.1Z"/>
      </g>
    </g>
    <g>
      <polygon class="st12" points="43.8 31.6 35.4 39.6 32.1 36.2 30.7 37.6 35.4 42.5 45.2 33.1 43.8 31.6"/>
      <path class="st0" d="M40.7,32.7c-.4-.2-.9-.5-1.4-.6,1.9-1.3,3.1-3.4,3.1-5.9,0-3.9-3.2-7.1-7.1-7.1s-7.1,3.2-7.1,7.1,1.2,4.6,3.1,5.9c-4.2,1.6-7.1,5.7-7.1,10.5h2c0-5.1,4.1-9.2,9.2-9.2s2.7.3,3.9.9l1.6-1.5h0ZM30.2,26.2c0-2.8,2.3-5.1,5.1-5.1s5.1,2.3,5.1,5.1-2.3,5.1-5.1,5.1-5.1-2.3-5.1-5.1Z"/>
      <path class="st0" d="M44.3,35.8l-1.5,1.4c1,1.5,1.6,3.3,1.6,5.2h2c0-2.5-.8-4.8-2.2-6.7h0Z"/>
    </g>
    <g class="st2">
      <text class="st1" transform="translate(45.5 35.8)"><tspan x="0" y="0">®</tspan></text>
    </g>
    <g class="st2">
      <text class="st11" transform="translate(11.4 21.3) rotate(-55.5)"><tspan x="0" y="0">C</tspan></text>
    </g>
    <g class="st2">
      <text class="st8" transform="translate(13.2 18.7) rotate(-48.7)"><tspan x="0" y="0">O</tspan></text>
    </g>
    <g class="st2">
      <text class="st11" transform="translate(15.6 16) rotate(-41.1)"><tspan x="0" y="0">M</tspan></text>
    </g>
    <g class="st2">
      <text class="st11" transform="translate(18.6 13.5) rotate(-33.6)"><tspan x="0" y="0">U</tspan></text>
    </g>
    <g class="st2">
      <text class="st9" transform="translate(21.4 11.7) rotate(-26.7)"><tspan x="0" y="0">N</tspan></text>
    </g>
    <g class="st2">
      <text class="st11" transform="translate(24.5 10.2) rotate(-21.3)"><tspan x="0" y="0">I</tspan></text>
    </g>
    <g class="st2">
      <text class="st11" transform="translate(26.2 9.5) rotate(-15.9)"><tspan x="0" y="0">D</tspan></text>
    </g>
    <g class="st2">
      <text class="st11" transform="translate(29.5 8.6) rotate(-9)"><tspan x="0" y="0">A</tspan></text>
    </g>
    <g class="st2">
      <text class="st11" transform="translate(32.7 8.1) rotate(-2.1)"><tspan x="0" y="0">D</tspan></text>
    </g>
    <g class="st2">
      <text class="st11" transform="translate(37.8 8.2) rotate(7.9)"><tspan x="0" y="0">C</tspan></text>
    </g>
    <g class="st2">
      <text class="st9" transform="translate(40.9 8.6) rotate(14.8)"><tspan x="0" y="0">O</tspan></text>
    </g>
    <g class="st2">
      <text class="st10" transform="translate(44.4 9.6) rotate(22)"><tspan x="0" y="0">N</tspan></text>
    </g>
    <g class="st2">
      <text class="st11" transform="translate(47.5 10.9) rotate(28.4)"><tspan x="0" y="0">F</tspan></text>
    </g>
    <g class="st2">
      <text class="st11" transform="translate(50 12.3) rotate(33.2)"><tspan x="0" y="0">I</tspan></text>
    </g>
    <g class="st2">
      <text class="st10" transform="translate(51.5 13.3) rotate(38.3)"><tspan x="0" y="0">A</tspan></text>
    </g>
    <g class="st2">
      <text class="st9" transform="translate(54 15.3) rotate(44.9)"><tspan x="0" y="0">B</tspan></text>
    </g>
    <g class="st2">
      <text class="st11" transform="translate(56.3 17.6) rotate(51)"><tspan x="0" y="0">L</tspan></text>
    </g>
    <g class="st2">
      <text class="st9" transform="translate(58 19.8) rotate(56.8)"><tspan x="0" y="0">E</tspan></text>
    </g>
    <g class="st2">
      <text class="st6" transform="translate(9.6 51.3) rotate(55.6)"><tspan x="0" y="0">C</tspan></text>
    </g>
    <g class="st2">
      <text class="st4" transform="translate(11.6 54.1) rotate(48.9)"><tspan x="0" y="0">O</tspan></text>
    </g>
    <g class="st2">
      <text class="st4" transform="translate(14.1 56.9) rotate(41.3)"><tspan x="0" y="0">M</tspan></text>
    </g>
    <g class="st2">
      <text class="st4" transform="translate(17.3 59.6) rotate(34)"><tspan x="0" y="0">U</tspan></text>
    </g>
    <g class="st2">
      <text class="st4" transform="translate(20.3 61.5) rotate(27)"><tspan x="0" y="0">N</tspan></text>
    </g>
    <g class="st2">
      <text class="st7" transform="translate(23.6 63.1) rotate(21.7)"><tspan x="0" y="0">I</tspan></text>
    </g>
    <g class="st2">
      <text class="st4" transform="translate(25.3 63.8) rotate(16.4)"><tspan x="0" y="0">D</tspan></text>
    </g>
    <g class="st2">
      <text class="st4" transform="translate(28.9 64.8) rotate(9.5)"><tspan x="0" y="0">A</tspan></text>
    </g>
    <g class="st2">
      <text class="st3" transform="translate(32.3 65.4) rotate(2.7)"><tspan x="0" y="0">D</tspan></text>
    </g>
    <g class="st2">
      <text class="st4" transform="translate(37.8 65.4) rotate(-7.2)"><tspan x="0" y="0">C</tspan></text>
    </g>
    <g class="st2">
      <text class="st3" transform="translate(41.1 64.9) rotate(-14)"><tspan x="0" y="0">O</tspan></text>
    </g>
    <g class="st2">
      <text class="st4" transform="translate(44.8 63.9) rotate(-21.2)"><tspan x="0" y="0">N</tspan></text>
    </g>
    <g class="st2">
      <text class="st4" transform="translate(48.1 62.6) rotate(-27.6)"><tspan x="0" y="0">F</tspan></text>
    </g>
    <g class="st2">
      <text class="st7" transform="translate(50.8 61.1) rotate(-32.3)"><tspan x="0" y="0">I</tspan></text>
    </g>
    <g class="st2">
      <text class="st5" transform="translate(52.4 60.1) rotate(-37.3)"><tspan x="0" y="0">A</tspan></text>
    </g>
    <g class="st2">
      <text class="st4" transform="translate(55.1 58) rotate(-43.9)"><tspan x="0" y="0">B</tspan></text>
    </g>
    <g class="st2">
      <text class="st4" transform="translate(57.6 55.5) rotate(-49.9)"><tspan x="0" y="0">L</tspan></text>
    </g>
    <g class="st2">
      <text class="st3" transform="translate(59.4 53.3) rotate(-55.7)"><tspan x="0" y="0">E</tspan></text>
    </g>
    <path class="st15" d="M27.2,28.7c-.2-.7-.3-1.4-.4-2.1-.3,0-.6,0-.9,0-2.6,0-4.7-2.1-4.7-4.7s2.1-4.7,4.7-4.7,3.2.9,4,2.3c.5-.4,1-.7,1.6-1-1.2-1.9-3.2-3.2-5.6-3.2-3.6,0-6.6,2.9-6.6,6.6s1.1,4.2,2.8,5.4c-3.9,1.5-6.6,5.2-6.6,9.6h1.9c0-4.7,3.8-8.4,8.4-8.4s.9,0,1.3.1h0Z"/>
    <path class="st15" d="M48.4,27.4c1.7-1.2,2.8-3.2,2.8-5.4,0-3.6-2.9-6.6-6.6-6.6s-4.5,1.3-5.6,3.2c.6.3,1.1.6,1.6,1,.8-1.4,2.3-2.3,4-2.3,2.6,0,4.7,2.1,4.7,4.7s-2.1,4.7-4.7,4.7-.6,0-.9,0c0,.7-.2,1.4-.4,2.1.4,0,.8,0,1.3,0,4.7,0,8.4,3.8,8.4,8.4h1.9c0-4.4-2.7-8.1-6.6-9.6h0Z"/>
  </g>
</svg>