<?xml version="1.0" encoding="UTF-8"?>
<svg id="Capa_1" xmlns="http://www.w3.org/2000/svg" version="1.1" viewBox="0 0 500 500">
  <!-- Generator: Adobe Illustrator 29.2.1, SVG Export Plug-In . SVG Version: 2.1.0 Build 116)  -->
  <defs>
    <style>
      .st0 {
        fill: #727272;
      }

      .st1 {
        fill: #fff;
        stroke: #c1c1c1;
      }

      .st1, .st2 {
        stroke-miterlimit: 10;
        stroke-width: 5px;
      }

      .st3, .st4 {
        fill: #c1c1c1;
      }

      .st2 {
        fill: none;
        stroke: #717171;
      }

      .st5 {
        fill: #717171;
      }

      .st4 {
        opacity: .5;
      }

      .st4, .st6 {
        display: none;
      }

      .st7 {
        fill: #01a982;
      }
    </style>
  </defs>
  <circle class="st1" cx="250.8" cy="250.6" r="240"/>
  <circle class="st2" cx="250.8" cy="250.6" r="182.5"/>
  <g>
    <g>
      <g id="Path_1886">
        <path class="st5" d="M148.2,363.8h14.8c3.6,0,7.2-.4,10.6-1.3,3.1-.8,6.1-2.1,8.6-3.7,2.4-1.5,4.3-3.5,5.7-5.6,1.3-2.2,2-4.6,2-7,0-2.4-.7-4.8-2.1-7-1.4-2.2-3.3-4.1-5.7-5.7-2.5-1.7-5.4-2.9-8.6-3.8-3.4-.9-7-1.4-10.6-1.4h-14.8v35.6ZM130.6,374.2v-56.3h32.6c6,0,12,.7,17.7,2.1,5.2,1.3,10,3.3,14.2,6,3.9,2.5,7.2,5.5,9.5,9,2.3,3.4,3.5,7.2,3.5,11.1,0,3.9-1.1,7.7-3.4,11.1-2.3,3.4-5.6,6.5-9.5,8.9-4.3,2.6-9.1,4.6-14.3,6-5.7,1.5-11.7,2.2-17.7,2.1h-32.6Z"/>
      </g>
      <g id="Path_1887">
        <path class="st5" d="M217.4,374.2v-56.3h43.8c5.2,0,10.4.7,15.2,2.3,4.1,1.3,7.6,3.5,10.3,6.2,2.5,2.7,3.8,5.9,3.7,9.2,0,3.2-1.3,6.3-3.7,8.9-2.7,2.7-6.2,4.9-10.3,6.2-4.8,1.6-9.9,2.3-15.1,2.3h-25.7v21.2h-18.1ZM235.5,343.3h23.7c3.4.1,6.7-.6,9.4-2.1,2.3-1.3,3.6-3.4,3.6-5.5,0-2.2-1.2-4.3-3.6-5.6-2.7-1.5-6.1-2.2-9.4-2.1h-23.7v15.4Z"/>
      </g>
      <g id="Path_1888">
        <path class="st5" d="M299.7,374.2v-56.3h41.5c5.2,0,10.4.7,15.2,2.2,4.1,1.3,7.7,3.4,10.3,6.2,2.5,2.6,3.8,5.8,3.7,9.1,0,3.5-1.5,6.9-4.5,9.5-3.2,2.8-7.4,5-12,6.1l18.8,23.2h-19.6l-16.6-21.6h-19.2v21.5h-17.6ZM317.3,343.1h22.3c3.4.1,6.7-.6,9.5-2.1,2.3-1.3,3.6-3.3,3.6-5.5,0-2.2-1.3-4.2-3.6-5.5-2.8-1.5-6.1-2.2-9.5-2.1h-22.3v15.1Z"/>
      </g>
    </g>
    <g>
      <polygon class="st7" points="313.9 223.4 252.6 282.3 228.3 257 217.5 267.4 252.1 303.5 324.3 234.2 313.9 223.4"/>
      <path class="st0" d="M291.3,231.3c-3.2-1.8-6.6-3.4-10-4.7,13.6-9.5,22.6-25.3,22.6-43.1,0-29-23.5-52.5-52.5-52.5s-52.5,23.5-52.5,52.5,8.9,33.6,22.6,43.1c-30.8,12-52.6,41.9-52.6,76.9h15c0-37.3,30.2-67.5,67.5-67.5s19.8,2.3,28.4,6.3l11.5-10.9ZM213.9,183.5c0-20.7,16.8-37.5,37.5-37.5s37.5,16.8,37.5,37.5-16.8,37.5-37.5,37.5-37.5-16.8-37.5-37.5Z"/>
      <path class="st0" d="M317.7,254.4l-10.9,10.5c7.6,10.9,12.1,24.2,12.1,38.6h15c0-18.4-6-35.3-16.2-49Z"/>
    </g>
    <path class="st5" d="M335.3,254c-1.1,0-2.2-.2-3.1-.6s-1.8-1-2.5-1.7c-.7-.7-1.3-1.6-1.7-2.5s-.6-2-.6-3.1.2-2.1.6-3.1c.4-1,1-1.8,1.7-2.5.7-.7,1.6-1.3,2.5-1.7,1-.4,2-.6,3.1-.6s2.2.2,3.1.6c1,.4,1.8,1,2.5,1.7.7.7,1.3,1.6,1.7,2.5s.6,2,.6,3.1-.2,2.2-.6,3.1c-.4,1-1,1.8-1.7,2.5s-1.6,1.3-2.5,1.7-2,.6-3.1.6ZM335.3,252.8c1,0,1.8-.2,2.7-.5.8-.3,1.5-.8,2.1-1.4.6-.6,1.1-1.3,1.4-2.2.3-.8.5-1.7.5-2.6s-.2-1.8-.5-2.6c-.3-.8-.8-1.5-1.4-2.1-.6-.6-1.3-1.1-2.1-1.4-.8-.3-1.7-.5-2.7-.5s-1.8.2-2.7.5c-.8.3-1.5.8-2.1,1.4-.6.6-1.1,1.3-1.4,2.1-.3.8-.5,1.7-.5,2.6s.2,1.8.5,2.6c.3.8.8,1.5,1.4,2.1.6.6,1.3,1.1,2.1,1.4.8.3,1.7.5,2.6.5ZM332,250.5v-8.8h3.7c1.2,0,2.1.3,2.7.8.7.5,1,1.3,1,2.2s-.3,1.8-1,2.3c-.7.5-1.6.8-2.7.8h-1.8v2.7h-1.9ZM333.9,246.3h1.7c.6,0,1.1-.1,1.5-.4.4-.3.5-.7.5-1.2s-.2-.9-.5-1.1c-.4-.3-.8-.4-1.5-.4h-1.7v3.1ZM337.7,250.5l-2.2-3.4h1.9l2.2,3.4h-1.9Z"/>
  </g>
  <g class="st6">
    <path class="st0" d="M82.4,138.7c-.8,1.1-1.7,2.1-2.7,2.8-1,.7-2.1,1.2-3.3,1.4-1.2.2-2.4.2-3.5,0-1.2-.2-2.3-.7-3.4-1.5-1.1-.8-2-1.7-2.6-2.7-.6-1-1.1-2.1-1.3-3.3-.2-1.2-.2-2.4.1-3.6.3-1.2.8-2.4,1.6-3.5.8-1.2,1.8-2.2,2.9-2.9s2.3-1.1,3.6-1.3l.4,2.9c-1,.2-1.8.5-2.5.9-.7.5-1.4,1.1-1.9,1.8-.5.8-.9,1.6-1.1,2.4-.2.8-.2,1.6,0,2.4.1.8.4,1.5.9,2.2.4.7,1.1,1.3,1.8,1.8.8.5,1.5.9,2.4,1,.8.2,1.6.2,2.4,0,.8-.2,1.5-.5,2.2-.9.7-.5,1.3-1.1,1.8-1.9.5-.8.9-1.6,1-2.4.2-.9.1-1.8,0-2.7l2.9-.6c.3,1.2.4,2.5.1,3.8s-.8,2.5-1.7,3.8Z"/>
    <path class="st0" d="M96.7,120.4c-.9,1-1.9,1.8-3.1,2.4-1.1.6-2.3.9-3.5,1-1.2.1-2.4,0-3.5-.4-1.2-.4-2.2-1-3.2-1.9-1-.9-1.8-1.9-2.3-3-.5-1.1-.8-2.2-.9-3.4,0-1.2.1-2.4.6-3.6.4-1.2,1.1-2.3,2-3.4.9-1,1.9-1.8,3-2.4,1.1-.6,2.3-.9,3.5-1,1.2,0,2.4,0,3.5.4,1.2.4,2.2,1,3.2,1.9,1,.9,1.8,1.9,2.3,3,.5,1.1.8,2.2.9,3.4,0,1.2-.1,2.4-.6,3.6s-1.1,2.3-2,3.3ZM94.5,118.5c.6-.7,1-1.4,1.3-2.2.3-.8.4-1.6.3-2.3,0-.8-.3-1.6-.6-2.3s-.9-1.4-1.6-2-1.4-1-2.2-1.3c-.8-.3-1.6-.4-2.4-.3-.8,0-1.6.3-2.3.6-.7.4-1.4.9-2,1.6-.6.7-1,1.4-1.3,2.2-.3.8-.4,1.6-.3,2.4s.3,1.6.6,2.3c.4.7.9,1.4,1.6,2,.7.6,1.4,1,2.2,1.3.8.3,1.6.4,2.4.3.8,0,1.6-.3,2.3-.6.7-.4,1.4-.9,2-1.6Z"/>
    <path class="st0" d="M108.6,107.3l-11.7-13.5,2.1-1.8,14.5,4.7-1.1.9-2.8-14.9,2.1-1.8,11.8,13.4-2.4,2.1-8.5-9.8.5-.4,2.3,12.5-1.1,1-12.2-3.9.6-.5,8.5,9.8-2.4,2.1Z"/>
    <path class="st0" d="M137.4,84.9c-2,1.3-4,1.8-5.9,1.5-1.9-.4-3.6-1.7-5.1-3.8l-5.6-8.4,2.8-1.8,5.5,8.3c1,1.5,2.1,2.4,3.2,2.7,1.1.3,2.3,0,3.5-.8,1.2-.8,1.9-1.8,2.1-2.9.2-1.1-.2-2.5-1.2-4l-5.5-8.3,2.7-1.8,5.6,8.4c1.5,2.2,2,4.2,1.6,6.1-.4,1.9-1.6,3.6-3.6,4.9Z"/>
    <path class="st0" d="M151.7,75.7l-8-16,2.4-1.2,16.2,7.3-1.2.6-6.2-12.3,2.9-1.5,8,16-2.4,1.2-16.2-7.3,1.2-.6,6.2,12.3-2.9,1.5Z"/>
    <path class="st0" d="M174.7,64.9l-6.5-16.7,3.1-1.2,6.5,16.7-3.1,1.2Z"/>
    <path class="st0" d="M186.8,60.4l-4.9-17.2,7.5-2.1c1.8-.5,3.6-.6,5.2-.3,1.6.3,3,1,4.2,2.1,1.2,1.1,2,2.5,2.5,4.2.5,1.7.5,3.3.1,4.9-.4,1.5-1.2,2.8-2.4,3.9-1.2,1.1-2.7,1.9-4.6,2.5l-7.5,2.1ZM189.2,56.8l4.1-1.2c1.3-.4,2.3-.9,3.1-1.7.8-.8,1.3-1.7,1.6-2.7.3-1,.3-2.1,0-3.3-.3-1.2-.9-2.2-1.7-2.9-.8-.7-1.7-1.2-2.8-1.4-1.1-.2-2.3-.2-3.6.2l-4.1,1.2,3.4,11.8Z"/>
    <path class="st0" d="M209.1,54.4l5.2-18.9,3.2-.5,10.8,16.4-3.5.5-9.3-14.8,1.3-.2-4.3,17-3.4.5ZM212.1,49.7l.5-2.7,9.5-1.5,1.3,2.4-11.3,1.8Z"/>
    <path class="st0" d="M235.1,50.8l-.7-17.9,7.8-.3c1.9,0,3.6.2,5.1.9,1.5.7,2.7,1.7,3.5,3,.9,1.3,1.3,2.9,1.4,4.6,0,1.8-.3,3.4-1.1,4.7-.8,1.4-1.9,2.5-3.3,3.3-1.4.8-3.1,1.2-5,1.3l-7.8.3ZM238.3,47.9l4.3-.2c1.3,0,2.5-.3,3.5-.9,1-.5,1.7-1.3,2.2-2.2.5-.9.8-2,.7-3.2,0-1.3-.4-2.3-.9-3.2-.6-.9-1.4-1.6-2.4-2-1-.5-2.2-.7-3.5-.6l-4.3.2.5,12.2Z"/>
    <path class="st0" d="M280.8,52.7c-1.4-.2-2.6-.6-3.7-1.2-1.1-.6-2-1.4-2.7-2.3-.7-.9-1.3-2-1.6-3.2s-.4-2.4-.2-3.7.6-2.5,1.2-3.5c.6-1,1.4-1.9,2.4-2.6,1-.7,2.1-1.2,3.3-1.5,1.2-.3,2.5-.3,3.9-.1,1.5.2,2.7.6,3.9,1.3,1.1.7,2,1.5,2.7,2.6l-2.4,1.7c-.6-.8-1.2-1.4-2-1.9-.7-.5-1.6-.7-2.5-.9-.9-.1-1.8,0-2.6.1-.8.2-1.5.5-2.2,1-.6.5-1.2,1.1-1.6,1.8-.4.7-.7,1.5-.8,2.4-.1.9,0,1.8.1,2.6.2.8.6,1.5,1.1,2.2.5.6,1.1,1.2,1.8,1.6.7.4,1.6.7,2.5.8.9.1,1.8,0,2.6-.2.8-.2,1.6-.7,2.4-1.3l1.8,2.3c-1,.9-2.1,1.5-3.3,1.8-1.3.3-2.6.4-4.1.2Z"/>
    <path class="st0" d="M303.5,57.4c-1.3-.4-2.5-.9-3.5-1.6-1-.7-1.9-1.6-2.5-2.7-.6-1-1-2.1-1.2-3.3-.2-1.2,0-2.4.2-3.7.3-1.3.9-2.4,1.6-3.4.7-1,1.6-1.7,2.7-2.3,1.1-.6,2.2-.9,3.5-1.1s2.6,0,3.9.3c1.3.4,2.5.9,3.5,1.6,1,.7,1.8,1.6,2.5,2.6.6,1,1,2.1,1.2,3.3.2,1.2,0,2.5-.2,3.7-.3,1.3-.9,2.4-1.6,3.4-.7,1-1.6,1.7-2.7,2.3s-2.2.9-3.4,1.1c-1.3.1-2.5,0-3.9-.3ZM304.3,54.6c.9.2,1.7.3,2.5.2.8-.1,1.6-.4,2.2-.8s1.3-.9,1.8-1.6.9-1.4,1.1-2.3c.2-.9.3-1.7.2-2.6-.1-.8-.4-1.6-.8-2.3-.4-.7-.9-1.3-1.6-1.8-.7-.5-1.4-.8-2.3-1.1s-1.7-.3-2.5-.2-1.6.4-2.3.8-1.3.9-1.8,1.6-.9,1.4-1.1,2.3c-.2.9-.3,1.7-.2,2.5s.4,1.6.8,2.3c.4.7.9,1.3,1.6,1.8.7.5,1.4.9,2.3,1.1Z"/>
    <path class="st0" d="M320.5,62.2l6.7-16.6,2.5,1,5.2,17-1.3-.5,5.2-12.8,3,1.2-6.7,16.6-2.5-1-5.2-17,1.3.5-5.2,12.8-3.1-1.2Z"/>
    <path class="st0" d="M346.6,73.9l-2.9-1.6,8.5-15.7,11.5,6.2-1.3,2.5-8.6-4.6-7.2,13.2ZM351,65.3l7.8,4.2-1.3,2.4-7.8-4.2,1.3-2.4Z"/>
    <path class="st0" d="M361.9,82.8l9.8-15,2.8,1.8-9.8,15-2.8-1.8Z"/>
    <path class="st0" d="M370.6,88.4l17.4-9,2.6,2-4.7,19-2.7-2.2,4.6-16.9,1,.8-15.4,8.4-2.7-2.1ZM376.1,87.5l2.3-1.5,7.6,6-.9,2.6-9-7.1Z"/>
    <path class="st0" d="M390.9,105.1l12.6-12.7,6,5.9c1.5,1.5,2.4,2.9,2.6,4.3s-.2,2.6-1.2,3.6c-.7.7-1.4,1.1-2.2,1.3s-1.6.1-2.4-.1c-.8-.3-1.5-.7-2.1-1.3l1-.3c.7.7,1.2,1.5,1.5,2.3.3.8.4,1.6.2,2.5-.2.8-.6,1.6-1.3,2.3-1.1,1.1-2.3,1.5-3.8,1.3-1.4-.2-3-1.1-4.6-2.8l-6.3-6.3ZM395,105.6l3.8,3.8c.9.9,1.7,1.4,2.4,1.6.8.2,1.5,0,2.1-.7.6-.6.8-1.3.7-2.1-.2-.8-.7-1.6-1.6-2.4l-4-4,1.8-1.8,3.5,3.5c.8.8,1.6,1.3,2.3,1.4s1.4,0,2-.6c.6-.6.8-1.3.6-2-.2-.7-.6-1.5-1.4-2.3l-3.3-3.3-8.9,9Z"/>
    <path class="st0" d="M407.5,122.5l13.9-11.2,2.1,2.6-11.7,9.5,5.9,7.3-2.2,1.8-8-9.8Z"/>
    <path class="st0" d="M423.9,139.5l5.5,8.4-2.3,1.5-7.3-11.2,15-9.8,7.1,10.9-2.3,1.5-5.3-8.1-10.3,6.7ZM430.1,135.1l4.9,7.4-2.3,1.5-4.9-7.4,2.3-1.5Z"/>
  </g>
  <g class="st6">
    <path class="st0" d="M68.7,377c-.8-1.1-1.3-2.3-1.6-3.5-.3-1.2-.3-2.4-.1-3.6.2-1.2.6-2.3,1.3-3.3.6-1,1.5-1.9,2.6-2.6,1.1-.8,2.2-1.2,3.4-1.5,1.2-.2,2.3-.2,3.5,0,1.2.2,2.3.7,3.3,1.4,1,.7,1.9,1.6,2.7,2.7.8,1.2,1.4,2.4,1.6,3.7.3,1.3.2,2.5-.1,3.8l-2.9-.6c.2-.9.2-1.8,0-2.7-.2-.9-.5-1.7-1-2.4-.5-.8-1.1-1.4-1.8-1.8s-1.4-.8-2.2-.9-1.6-.1-2.4,0c-.8.2-1.6.5-2.3,1s-1.4,1.1-1.8,1.8c-.4.7-.7,1.4-.9,2.2s-.1,1.6,0,2.4.5,1.6,1.1,2.4c.5.8,1.1,1.4,1.9,1.8.7.5,1.6.8,2.5.9l-.5,2.9c-1.3-.1-2.5-.5-3.6-1.2s-2.1-1.7-2.9-2.9Z"/>
    <path class="st0" d="M84,396.6c-.9-1-1.6-2.1-2-3.3-.4-1.2-.6-2.4-.6-3.6,0-1.2.3-2.3.9-3.4.5-1.1,1.3-2.1,2.3-2.9,1-.9,2.1-1.5,3.2-1.9,1.1-.4,2.3-.5,3.5-.4,1.2.1,2.3.5,3.4,1,1.1.6,2.1,1.4,3,2.4.9,1,1.6,2.1,2,3.3.4,1.2.6,2.4.6,3.5s-.3,2.3-.9,3.4c-.5,1.1-1.3,2.1-2.3,2.9-1,.9-2.1,1.5-3.2,1.9-1.1.4-2.3.5-3.5.4-1.2,0-2.3-.4-3.4-1-1.1-.6-2.1-1.4-3-2.4ZM86.2,394.7c.6.7,1.2,1.2,2,1.6.7.4,1.5.6,2.3.6.8,0,1.6,0,2.3-.3.8-.3,1.5-.7,2.2-1.3.7-.6,1.2-1.3,1.6-2,.4-.7.6-1.5.6-2.3,0-.8,0-1.6-.3-2.3-.3-.8-.7-1.5-1.3-2.2-.6-.7-1.3-1.2-2-1.6-.7-.4-1.5-.6-2.3-.6-.8,0-1.6,0-2.4.3-.8.3-1.5.7-2.2,1.3-.7.6-1.2,1.3-1.6,2-.4.7-.6,1.5-.6,2.3s0,1.6.3,2.4.7,1.5,1.3,2.2Z"/>
    <path class="st0" d="M97.6,410.8l11.7-13.3,2,1.8-2.7,14.9-1.1-.9,14.3-4.7,2,1.8-11.7,13.4-2.4-2.1,8.5-9.7.5.4-12,3.9-1.1-1,2.2-12.5.6.5-8.5,9.7-2.4-2.1Z"/>
    <path class="st0" d="M127.4,434.9c-2-1.4-3.2-3-3.6-4.9-.4-1.9.2-3.9,1.6-6.1l5.6-8.3,2.7,1.8-5.5,8.2c-1,1.5-1.4,2.8-1.2,4,.2,1.1.9,2.1,2.1,2.9,1.2.8,2.3,1.1,3.4.8,1.1-.3,2.2-1.1,3.2-2.7l5.5-8.2,2.7,1.8-5.6,8.3c-1.5,2.2-3.1,3.4-5,3.8s-3.9-.1-5.9-1.5Z"/>
    <path class="st0" d="M143.5,444.6l8.1-15.8,2.4,1.2,3.7,17.3-1.2-.6,6.2-12.2,2.9,1.5-8.1,15.8-2.4-1.2-3.7-17.3,1.2.6-6.2,12.2-2.9-1.5Z"/>
    <path class="st0" d="M167.5,456l6.6-16.5,3.1,1.2-6.6,16.5-3.1-1.2Z"/>
    <path class="st0" d="M180.8,461.1l5-17,7.5,2.2c1.8.5,3.3,1.4,4.5,2.5,1.2,1.1,2,2.4,2.4,3.9s.4,3.1-.1,4.8c-.5,1.7-1.3,3.1-2.5,4.1s-2.5,1.7-4.1,2c-1.6.3-3.3.2-5.1-.4l-7.5-2.2ZM184.7,459.3l4.1,1.2c1.3.4,2.5.5,3.5.2,1.1-.2,2-.7,2.8-1.4s1.3-1.7,1.7-2.8c.4-1.2.4-2.3.1-3.3-.3-1-.8-1.9-1.6-2.7-.8-.8-1.8-1.3-3.1-1.7l-4.1-1.2-3.4,11.7Z"/>
    <path class="st0" d="M204.7,467.7l10.8-16.2,3.2.5,5,18.8-3.4-.6-4.1-16.9,1.3.2-9.4,14.7-3.3-.6ZM209,464.2l1.3-2.4,9.4,1.6.4,2.7-11.2-1.9Z"/>
    <path class="st0" d="M232.3,471.7l.8-17.7,7.8.4c1.9,0,3.5.5,5,1.3,1.4.8,2.5,1.9,3.3,3.3s1.1,2.9,1,4.7c0,1.8-.6,3.3-1.4,4.6-.9,1.3-2.1,2.3-3.6,2.9-1.5.7-3.2,1-5.1.9l-7.8-.4ZM235.8,469l4.3.2c1.3,0,2.5-.1,3.5-.6,1-.5,1.8-1.1,2.4-2s.9-1.9,1-3.2c0-1.3-.2-2.3-.7-3.3-.5-.9-1.2-1.7-2.2-2.2-.9-.6-2.1-.9-3.4-.9l-4.3-.2-.6,12.2Z"/>
    <path class="st0" d="M280.4,470.6c-1.4.2-2.6.1-3.8-.2s-2.3-.8-3.2-1.5c-1-.7-1.7-1.6-2.3-2.6-.6-1-1-2.2-1.2-3.5-.2-1.3,0-2.6.2-3.7.3-1.2.9-2.2,1.6-3.1.8-.9,1.7-1.7,2.8-2.3,1.1-.6,2.3-1,3.7-1.1,1.4-.2,2.8-.1,4,.2s2.4,1,3.3,1.8l-1.9,2.3c-.7-.6-1.5-1-2.4-1.3-.8-.2-1.7-.3-2.6-.2-.9.1-1.7.4-2.5.8-.7.4-1.3.9-1.8,1.5-.5.6-.8,1.3-1.1,2.1-.2.8-.3,1.6-.2,2.6s.4,1.7.8,2.4c.4.7.9,1.3,1.6,1.8.6.5,1.3.8,2.1,1,.8.2,1.7.3,2.6.1.9-.1,1.7-.4,2.5-.8.7-.4,1.4-1.1,2-1.8l2.4,1.7c-.7,1.1-1.6,1.9-2.7,2.6-1.1.7-2.4,1.1-3.9,1.3Z"/>
    <path class="st0" d="M304.9,465.9c-1.3.3-2.6.4-3.9.3-1.3-.2-2.4-.5-3.4-1.1-1-.6-1.9-1.4-2.6-2.3-.7-1-1.2-2.1-1.6-3.3-.3-1.3-.4-2.5-.2-3.7.2-1.2.6-2.3,1.2-3.3.6-1,1.5-1.9,2.5-2.6,1-.7,2.2-1.3,3.5-1.6,1.3-.3,2.6-.4,3.9-.3,1.2.2,2.4.5,3.4,1.1,1,.6,1.9,1.4,2.6,2.3.7,1,1.3,2.1,1.6,3.4.3,1.3.4,2.5.2,3.7-.2,1.2-.6,2.3-1.2,3.3s-1.5,1.9-2.5,2.6c-1,.7-2.2,1.2-3.5,1.6ZM304.2,463.1c.9-.2,1.6-.6,2.3-1s1.2-1.1,1.6-1.7c.4-.7.7-1.4.8-2.2.1-.8,0-1.7-.2-2.6-.2-.9-.6-1.7-1.1-2.3-.5-.7-1.1-1.2-1.7-1.6s-1.4-.7-2.2-.8c-.8-.1-1.6,0-2.5.2-.9.2-1.6.6-2.3,1s-1.2,1.1-1.6,1.8c-.4.7-.7,1.4-.8,2.2-.1.8,0,1.7.1,2.5.2.9.6,1.6,1.1,2.3.5.7,1.1,1.2,1.8,1.6.7.4,1.4.7,2.2.8.8.1,1.7,0,2.5-.2Z"/>
    <path class="st0" d="M323.5,460.3l-6.4-16.6,2.5-1,15.3,8.8-1.3.5-5-12.8,3-1.2,6.4,16.6-2.5,1-15.3-8.8,1.3-.5,5,12.8-3,1.2Z"/>
    <path class="st0" d="M351.2,448.3l-2.9,1.5-8.2-15.7,11.5-6,1.3,2.5-8.6,4.5,6.9,13.3ZM346.5,440l7.8-4.1,1.3,2.4-7.8,4.1-1.3-2.4Z"/>
    <path class="st0" d="M367.6,439.1l-9.5-15,2.8-1.8,9.5,15-2.8,1.8Z"/>
    <path class="st0" d="M377.4,432.9l-4.4-19,2.6-2,17.1,9.3-2.8,2.1-15.2-8.6,1-.8,4.2,16.9-2.7,2ZM377.8,427.4l-.8-2.6,7.6-5.8,2.3,1.5-9,6.9Z"/>
    <path class="st0" d="M399.2,415.5l-12.3-12.8,6-5.8c1.5-1.5,3-2.3,4.4-2.5,1.4-.2,2.6.3,3.5,1.3.7.7,1.1,1.4,1.2,2.2.1.8,0,1.6-.2,2.3s-.7,1.5-1.3,2.1l-.3-1c.7-.7,1.5-1.2,2.3-1.5.8-.3,1.6-.3,2.5-.2.8.2,1.6.6,2.3,1.4,1.1,1.1,1.5,2.4,1.2,3.8-.2,1.4-1.2,2.9-2.8,4.5l-6.4,6.1ZM399.7,411.3l3.9-3.7c.9-.8,1.4-1.6,1.6-2.4.2-.7,0-1.4-.6-2.1-.6-.6-1.3-.9-2.1-.7-.8.2-1.6.7-2.5,1.5l-4,3.9-1.8-1.8,3.5-3.4c.8-.8,1.3-1.5,1.5-2.3.2-.7,0-1.4-.6-2-.6-.6-1.2-.8-2-.7-.7.1-1.5.6-2.3,1.4l-3.4,3.2,8.7,9.1Z"/>
    <path class="st0" d="M417.1,397.3l-13.6-11.4,2.1-2.5,11.5,9.6,6-7.1,2.1,1.8-8.1,9.6Z"/>
    <path class="st0" d="M430,376.3l5.6-8.3,2.3,1.6-7.5,11-14.7-10,7.3-10.7,2.3,1.6-5.4,8,10.1,6.9ZM423.6,372.3l5-7.3,2.2,1.5-5,7.3-2.2-1.5Z"/>
  </g>
  <path class="st3" d="M191.8,201.9c-1.5-4.9-2.4-10-2.7-15.3-2.3.5-4.6.7-7,.7-19.1,0-34.5-15.5-34.5-34.5s15.5-34.5,34.5-34.5,23.8,6.9,29.8,17.1c3.6-2.9,7.4-5.4,11.6-7.5-8.5-14-23.8-23.4-41.4-23.4-26.7,0-48.3,21.6-48.3,48.3s8.2,31,20.8,39.7c-28.3,11-48.4,38.5-48.4,70.8h13.8c0-34.3,27.8-62.1,62.1-62.1s6.5.3,9.6.8Z"/>
  <path class="st3" d="M347.8,192.5c12.5-8.7,20.8-23.2,20.8-39.7,0-26.7-21.6-48.3-48.3-48.3s-32.8,9.3-41.3,23.2c4.2,2.1,8,4.6,11.6,7.5,6-10.1,17-16.9,29.6-16.9,19.1,0,34.5,15.5,34.5,34.5s-15.5,34.5-34.5,34.5-4.5-.2-6.6-.6c-.3,5.2-1.2,10.3-2.6,15.1,3-.5,6.1-.7,9.2-.7,34.3,0,62.1,27.8,62.1,62.1h13.8c0-32.2-20.1-59.7-48.4-70.8Z"/>
  <circle class="st4" cx="132" cy="380.2" r="5"/>
  <circle class="st4" cx="369.5" cy="380.2" r="5"/>
  <g>
    <path class="st0" d="M82.4,138.7c-.8,1.1-1.7,2.1-2.7,2.8-1,.7-2.1,1.2-3.3,1.4-1.2.2-2.4.2-3.5,0-1.2-.2-2.3-.7-3.4-1.5-1.1-.8-2-1.7-2.6-2.7-.6-1-1.1-2.1-1.3-3.3-.2-1.2-.2-2.4.1-3.6.3-1.2.8-2.4,1.6-3.5.8-1.2,1.8-2.2,2.9-2.9s2.3-1.1,3.6-1.3l.4,2.9c-1,.2-1.8.5-2.5.9-.7.5-1.4,1.1-1.9,1.8-.5.8-.9,1.6-1.1,2.4-.2.8-.2,1.6,0,2.4.1.8.4,1.5.9,2.2.4.7,1.1,1.3,1.8,1.8.8.5,1.5.9,2.4,1,.8.2,1.6.2,2.4,0,.8-.2,1.5-.5,2.2-.9.7-.5,1.3-1.1,1.8-1.9.5-.8.9-1.6,1-2.4.2-.9.1-1.8,0-2.7l2.9-.6c.3,1.2.4,2.5.1,3.8s-.8,2.5-1.7,3.8Z"/>
    <path class="st0" d="M96.7,120.4c-.9,1-1.9,1.8-3.1,2.4-1.1.6-2.3.9-3.5,1-1.2.1-2.4,0-3.5-.4-1.2-.4-2.2-1-3.2-1.9-1-.9-1.8-1.9-2.3-3-.5-1.1-.8-2.2-.9-3.4,0-1.2.1-2.4.6-3.6.4-1.2,1.1-2.3,2-3.4.9-1,1.9-1.8,3-2.4,1.1-.6,2.3-.9,3.5-1,1.2,0,2.4,0,3.5.4,1.2.4,2.2,1,3.2,1.9,1,.9,1.8,1.9,2.3,3,.5,1.1.8,2.2.9,3.4,0,1.2-.1,2.4-.6,3.6s-1.1,2.3-2,3.3ZM94.5,118.5c.6-.7,1-1.4,1.3-2.2.3-.8.4-1.6.3-2.3,0-.8-.3-1.6-.6-2.3s-.9-1.4-1.6-2-1.4-1-2.2-1.3c-.8-.3-1.6-.4-2.4-.3-.8,0-1.6.3-2.3.6-.7.4-1.4.9-2,1.6-.6.7-1,1.4-1.3,2.2-.3.8-.4,1.6-.3,2.4s.3,1.6.6,2.3c.4.7.9,1.4,1.6,2,.7.6,1.4,1,2.2,1.3.8.3,1.6.4,2.4.3.8,0,1.6-.3,2.3-.6.7-.4,1.4-.9,2-1.6Z"/>
    <path class="st0" d="M108.6,107.3l-11.7-13.5,2.1-1.8,14.5,4.7-1.1.9-2.8-14.9,2.1-1.8,11.8,13.4-2.4,2.1-8.5-9.8.5-.4,2.3,12.5-1.1,1-12.2-3.9.6-.5,8.5,9.8-2.4,2.1Z"/>
    <path class="st0" d="M137.4,84.9c-2,1.3-4,1.8-5.9,1.5-1.9-.4-3.6-1.7-5.1-3.8l-5.6-8.4,2.8-1.8,5.5,8.3c1,1.5,2.1,2.4,3.2,2.7,1.1.3,2.3,0,3.5-.8,1.2-.8,1.9-1.8,2.1-2.9.2-1.1-.2-2.5-1.2-4l-5.5-8.3,2.7-1.8,5.6,8.4c1.5,2.2,2,4.2,1.6,6.1-.4,1.9-1.6,3.6-3.6,4.9Z"/>
    <path class="st0" d="M151.7,75.7l-8-16,2.4-1.2,16.2,7.3-1.2.6-6.2-12.3,2.9-1.5,8,16-2.4,1.2-16.2-7.3,1.2-.6,6.2,12.3-2.9,1.5Z"/>
    <path class="st0" d="M174.7,64.9l-6.5-16.7,3.1-1.2,6.5,16.7-3.1,1.2Z"/>
    <path class="st0" d="M186.8,60.4l-4.9-17.2,7.5-2.1c1.8-.5,3.6-.6,5.2-.3,1.6.3,3,1,4.2,2.1,1.2,1.1,2,2.5,2.5,4.2.5,1.7.5,3.3.1,4.9-.4,1.5-1.2,2.8-2.4,3.9-1.2,1.1-2.7,1.9-4.6,2.5l-7.5,2.1ZM189.2,56.8l4.1-1.2c1.3-.4,2.3-.9,3.1-1.7.8-.8,1.3-1.7,1.6-2.7.3-1,.3-2.1,0-3.3-.3-1.2-.9-2.2-1.7-2.9-.8-.7-1.7-1.2-2.8-1.4-1.1-.2-2.3-.2-3.6.2l-4.1,1.2,3.4,11.8Z"/>
    <path class="st0" d="M209.1,54.4l5.2-18.9,3.2-.5,10.8,16.4-3.5.5-9.3-14.8,1.3-.2-4.3,17-3.4.5ZM212.1,49.7l.5-2.7,9.5-1.5,1.3,2.4-11.3,1.8Z"/>
    <path class="st0" d="M235.1,50.8l-.7-17.9,7.8-.3c1.9,0,3.6.2,5.1.9,1.5.7,2.7,1.7,3.5,3,.9,1.3,1.3,2.9,1.4,4.6,0,1.8-.3,3.4-1.1,4.7-.8,1.4-1.9,2.5-3.3,3.3-1.4.8-3.1,1.2-5,1.3l-7.8.3ZM238.3,47.9l4.3-.2c1.3,0,2.5-.3,3.5-.9,1-.5,1.7-1.3,2.2-2.2.5-.9.8-2,.7-3.2,0-1.3-.4-2.3-.9-3.2-.6-.9-1.4-1.6-2.4-2-1-.5-2.2-.7-3.5-.6l-4.3.2.5,12.2Z"/>
    <path class="st0" d="M280.8,52.7c-1.4-.2-2.6-.6-3.7-1.2-1.1-.6-2-1.4-2.7-2.3-.7-.9-1.3-2-1.6-3.2s-.4-2.4-.2-3.7.6-2.5,1.2-3.5c.6-1,1.4-1.9,2.4-2.6,1-.7,2.1-1.2,3.3-1.5,1.2-.3,2.5-.3,3.9-.1,1.5.2,2.7.6,3.9,1.3,1.1.7,2,1.5,2.7,2.6l-2.4,1.7c-.6-.8-1.2-1.4-2-1.9-.7-.5-1.6-.7-2.5-.9-.9-.1-1.8,0-2.6.1-.8.2-1.5.5-2.2,1-.6.5-1.2,1.1-1.6,1.8-.4.7-.7,1.5-.8,2.4-.1.9,0,1.8.1,2.6.2.8.6,1.5,1.1,2.2.5.6,1.1,1.2,1.8,1.6.7.4,1.6.7,2.5.8.9.1,1.8,0,2.6-.2.8-.2,1.6-.7,2.4-1.3l1.8,2.3c-1,.9-2.1,1.5-3.3,1.8-1.3.3-2.6.4-4.1.2Z"/>
    <path class="st0" d="M303.5,57.4c-1.3-.4-2.5-.9-3.5-1.6-1-.7-1.9-1.6-2.5-2.7-.6-1-1-2.1-1.2-3.3-.2-1.2,0-2.4.2-3.7.3-1.3.9-2.4,1.6-3.4.7-1,1.6-1.7,2.7-2.3,1.1-.6,2.2-.9,3.5-1.1s2.6,0,3.9.3c1.3.4,2.5.9,3.5,1.6,1,.7,1.8,1.6,2.5,2.6.6,1,1,2.1,1.2,3.3.2,1.2,0,2.5-.2,3.7-.3,1.3-.9,2.4-1.6,3.4-.7,1-1.6,1.7-2.7,2.3s-2.2.9-3.4,1.1c-1.3.1-2.5,0-3.9-.3ZM304.3,54.6c.9.2,1.7.3,2.5.2.8-.1,1.6-.4,2.2-.8s1.3-.9,1.8-1.6.9-1.4,1.1-2.3c.2-.9.3-1.7.2-2.6-.1-.8-.4-1.6-.8-2.3-.4-.7-.9-1.3-1.6-1.8-.7-.5-1.4-.8-2.3-1.1s-1.7-.3-2.5-.2-1.6.4-2.3.8-1.3.9-1.8,1.6-.9,1.4-1.1,2.3c-.2.9-.3,1.7-.2,2.5s.4,1.6.8,2.3c.4.7.9,1.3,1.6,1.8.7.5,1.4.9,2.3,1.1Z"/>
    <path class="st0" d="M320.5,62.2l6.7-16.6,2.5,1,5.2,17-1.3-.5,5.2-12.8,3,1.2-6.7,16.6-2.5-1-5.2-17,1.3.5-5.2,12.8-3.1-1.2Z"/>
    <path class="st0" d="M346.6,73.9l-2.9-1.6,8.5-15.7,11.5,6.2-1.3,2.5-8.6-4.6-7.2,13.2ZM351,65.3l7.8,4.2-1.3,2.4-7.8-4.2,1.3-2.4Z"/>
    <path class="st0" d="M361.9,82.8l9.8-15,2.8,1.8-9.8,15-2.8-1.8Z"/>
    <path class="st0" d="M370.6,88.4l17.4-9,2.6,2-4.7,19-2.7-2.2,4.6-16.9,1,.8-15.4,8.4-2.7-2.1ZM376.1,87.5l2.3-1.5,7.6,6-.9,2.6-9-7.1Z"/>
    <path class="st0" d="M390.9,105.1l12.6-12.7,6,5.9c1.5,1.5,2.4,2.9,2.6,4.3s-.2,2.6-1.2,3.6c-.7.7-1.4,1.1-2.2,1.3s-1.6.1-2.4-.1c-.8-.3-1.5-.7-2.1-1.3l1-.3c.7.7,1.2,1.5,1.5,2.3.3.8.4,1.6.2,2.5-.2.8-.6,1.6-1.3,2.3-1.1,1.1-2.3,1.5-3.8,1.3-1.4-.2-3-1.1-4.6-2.8l-6.3-6.3ZM395,105.6l3.8,3.8c.9.9,1.7,1.4,2.4,1.6.8.2,1.5,0,2.1-.7.6-.6.8-1.3.7-2.1-.2-.8-.7-1.6-1.6-2.4l-4-4,1.8-1.8,3.5,3.5c.8.8,1.6,1.3,2.3,1.4s1.4,0,2-.6c.6-.6.8-1.3.6-2-.2-.7-.6-1.5-1.4-2.3l-3.3-3.3-8.9,9Z"/>
    <path class="st0" d="M407.5,122.5l13.9-11.2,2.1,2.6-11.7,9.5,5.9,7.3-2.2,1.8-8-9.8Z"/>
    <path class="st0" d="M423.9,139.5l5.5,8.4-2.3,1.5-7.3-11.2,15-9.8,7.1,10.9-2.3,1.5-5.3-8.1-10.3,6.7ZM430.1,135.1l4.9,7.4-2.3,1.5-4.9-7.4,2.3-1.5Z"/>
  </g>
  <g>
    <path class="st0" d="M68.7,377c-.8-1.1-1.3-2.3-1.6-3.5-.3-1.2-.3-2.4-.1-3.6.2-1.2.6-2.3,1.3-3.3.6-1,1.5-1.9,2.6-2.6,1.1-.8,2.2-1.2,3.4-1.5,1.2-.2,2.3-.2,3.5,0,1.2.2,2.3.7,3.3,1.4,1,.7,1.9,1.6,2.7,2.7.8,1.2,1.4,2.4,1.6,3.7.3,1.3.2,2.5-.1,3.8l-2.9-.6c.2-.9.2-1.8,0-2.7-.2-.9-.5-1.7-1-2.4-.5-.8-1.1-1.4-1.8-1.8s-1.4-.8-2.2-.9-1.6-.1-2.4,0c-.8.2-1.6.5-2.3,1s-1.4,1.1-1.8,1.8c-.4.7-.7,1.4-.9,2.2s-.1,1.6,0,2.4.5,1.6,1.1,2.4c.5.8,1.1,1.4,1.9,1.8.7.5,1.6.8,2.5.9l-.5,2.9c-1.3-.1-2.5-.5-3.6-1.2s-2.1-1.7-2.9-2.9Z"/>
    <path class="st0" d="M84,396.6c-.9-1-1.6-2.1-2-3.3-.4-1.2-.6-2.4-.6-3.6,0-1.2.3-2.3.9-3.4.5-1.1,1.3-2.1,2.3-2.9,1-.9,2.1-1.5,3.2-1.9,1.1-.4,2.3-.5,3.5-.4,1.2.1,2.3.5,3.4,1,1.1.6,2.1,1.4,3,2.4.9,1,1.6,2.1,2,3.3.4,1.2.6,2.4.6,3.5s-.3,2.3-.9,3.4c-.5,1.1-1.3,2.1-2.3,2.9-1,.9-2.1,1.5-3.2,1.9-1.1.4-2.3.5-3.5.4-1.2,0-2.3-.4-3.4-1-1.1-.6-2.1-1.4-3-2.4ZM86.2,394.7c.6.7,1.2,1.2,2,1.6.7.4,1.5.6,2.3.6.8,0,1.6,0,2.3-.3.8-.3,1.5-.7,2.2-1.3.7-.6,1.2-1.3,1.6-2,.4-.7.6-1.5.6-2.3,0-.8,0-1.6-.3-2.3-.3-.8-.7-1.5-1.3-2.2-.6-.7-1.3-1.2-2-1.6-.7-.4-1.5-.6-2.3-.6-.8,0-1.6,0-2.4.3-.8.3-1.5.7-2.2,1.3-.7.6-1.2,1.3-1.6,2-.4.7-.6,1.5-.6,2.3s0,1.6.3,2.4.7,1.5,1.3,2.2Z"/>
    <path class="st0" d="M97.6,410.8l11.7-13.3,2,1.8-2.7,14.9-1.1-.9,14.3-4.7,2,1.8-11.7,13.4-2.4-2.1,8.5-9.7.5.4-12,3.9-1.1-1,2.2-12.5.6.5-8.5,9.7-2.4-2.1Z"/>
    <path class="st0" d="M127.4,434.9c-2-1.4-3.2-3-3.6-4.9-.4-1.9.2-3.9,1.6-6.1l5.6-8.3,2.7,1.8-5.5,8.2c-1,1.5-1.4,2.8-1.2,4,.2,1.1.9,2.1,2.1,2.9,1.2.8,2.3,1.1,3.4.8,1.1-.3,2.2-1.1,3.2-2.7l5.5-8.2,2.7,1.8-5.6,8.3c-1.5,2.2-3.1,3.4-5,3.8s-3.9-.1-5.9-1.5Z"/>
    <path class="st0" d="M143.5,444.6l8.1-15.8,2.4,1.2,3.7,17.3-1.2-.6,6.2-12.2,2.9,1.5-8.1,15.8-2.4-1.2-3.7-17.3,1.2.6-6.2,12.2-2.9-1.5Z"/>
    <path class="st0" d="M167.5,456l6.6-16.5,3.1,1.2-6.6,16.5-3.1-1.2Z"/>
    <path class="st0" d="M180.8,461.1l5-17,7.5,2.2c1.8.5,3.3,1.4,4.5,2.5,1.2,1.1,2,2.4,2.4,3.9s.4,3.1-.1,4.8c-.5,1.7-1.3,3.1-2.5,4.1s-2.5,1.7-4.1,2c-1.6.3-3.3.2-5.1-.4l-7.5-2.2ZM184.7,459.3l4.1,1.2c1.3.4,2.5.5,3.5.2,1.1-.2,2-.7,2.8-1.4s1.3-1.7,1.7-2.8c.4-1.2.4-2.3.1-3.3-.3-1-.8-1.9-1.6-2.7-.8-.8-1.8-1.3-3.1-1.7l-4.1-1.2-3.4,11.7Z"/>
    <path class="st0" d="M204.7,467.7l10.8-16.2,3.2.5,5,18.8-3.4-.6-4.1-16.9,1.3.2-9.4,14.7-3.3-.6ZM209,464.2l1.3-2.4,9.4,1.6.4,2.7-11.2-1.9Z"/>
    <path class="st0" d="M232.3,471.7l.8-17.7,7.8.4c1.9,0,3.5.5,5,1.3,1.4.8,2.5,1.9,3.3,3.3s1.1,2.9,1,4.7c0,1.8-.6,3.3-1.4,4.6-.9,1.3-2.1,2.3-3.6,2.9-1.5.7-3.2,1-5.1.9l-7.8-.4ZM235.8,469l4.3.2c1.3,0,2.5-.1,3.5-.6,1-.5,1.8-1.1,2.4-2s.9-1.9,1-3.2c0-1.3-.2-2.3-.7-3.3-.5-.9-1.2-1.7-2.2-2.2-.9-.6-2.1-.9-3.4-.9l-4.3-.2-.6,12.2Z"/>
    <path class="st0" d="M280.4,470.6c-1.4.2-2.6.1-3.8-.2s-2.3-.8-3.2-1.5c-1-.7-1.7-1.6-2.3-2.6-.6-1-1-2.2-1.2-3.5-.2-1.3,0-2.6.2-3.7.3-1.2.9-2.2,1.6-3.1.8-.9,1.7-1.7,2.8-2.3,1.1-.6,2.3-1,3.7-1.1,1.4-.2,2.8-.1,4,.2s2.4,1,3.3,1.8l-1.9,2.3c-.7-.6-1.5-1-2.4-1.3-.8-.2-1.7-.3-2.6-.2-.9.1-1.7.4-2.5.8-.7.4-1.3.9-1.8,1.5-.5.6-.8,1.3-1.1,2.1-.2.8-.3,1.6-.2,2.6s.4,1.7.8,2.4c.4.7.9,1.3,1.6,1.8.6.5,1.3.8,2.1,1,.8.2,1.7.3,2.6.1.9-.1,1.7-.4,2.5-.8.7-.4,1.4-1.1,2-1.8l2.4,1.7c-.7,1.1-1.6,1.9-2.7,2.6-1.1.7-2.4,1.1-3.9,1.3Z"/>
    <path class="st0" d="M304.9,465.9c-1.3.3-2.6.4-3.9.3-1.3-.2-2.4-.5-3.4-1.1-1-.6-1.9-1.4-2.6-2.3-.7-1-1.2-2.1-1.6-3.3-.3-1.3-.4-2.5-.2-3.7.2-1.2.6-2.3,1.2-3.3.6-1,1.5-1.9,2.5-2.6,1-.7,2.2-1.3,3.5-1.6,1.3-.3,2.6-.4,3.9-.3,1.2.2,2.4.5,3.4,1.1,1,.6,1.9,1.4,2.6,2.3.7,1,1.3,2.1,1.6,3.4.3,1.3.4,2.5.2,3.7-.2,1.2-.6,2.3-1.2,3.3s-1.5,1.9-2.5,2.6c-1,.7-2.2,1.2-3.5,1.6ZM304.2,463.1c.9-.2,1.6-.6,2.3-1s1.2-1.1,1.6-1.7c.4-.7.7-1.4.8-2.2.1-.8,0-1.7-.2-2.6-.2-.9-.6-1.7-1.1-2.3-.5-.7-1.1-1.2-1.7-1.6s-1.4-.7-2.2-.8c-.8-.1-1.6,0-2.5.2-.9.2-1.6.6-2.3,1s-1.2,1.1-1.6,1.8c-.4.7-.7,1.4-.8,2.2-.1.8,0,1.7.1,2.5.2.9.6,1.6,1.1,2.3.5.7,1.1,1.2,1.8,1.6.7.4,1.4.7,2.2.8.8.1,1.7,0,2.5-.2Z"/>
    <path class="st0" d="M323.5,460.3l-6.4-16.6,2.5-1,15.3,8.8-1.3.5-5-12.8,3-1.2,6.4,16.6-2.5,1-15.3-8.8,1.3-.5,5,12.8-3,1.2Z"/>
    <path class="st0" d="M351.2,448.3l-2.9,1.5-8.2-15.7,11.5-6,1.3,2.5-8.6,4.5,6.9,13.3ZM346.5,440l7.8-4.1,1.3,2.4-7.8,4.1-1.3-2.4Z"/>
    <path class="st0" d="M367.6,439.1l-9.5-15,2.8-1.8,9.5,15-2.8,1.8Z"/>
    <path class="st0" d="M377.4,432.9l-4.4-19,2.6-2,17.1,9.3-2.8,2.1-15.2-8.6,1-.8,4.2,16.9-2.7,2ZM377.8,427.4l-.8-2.6,7.6-5.8,2.3,1.5-9,6.9Z"/>
    <path class="st0" d="M399.2,415.5l-12.3-12.8,6-5.8c1.5-1.5,3-2.3,4.4-2.5,1.4-.2,2.6.3,3.5,1.3.7.7,1.1,1.4,1.2,2.2.1.8,0,1.6-.2,2.3s-.7,1.5-1.3,2.1l-.3-1c.7-.7,1.5-1.2,2.3-1.5.8-.3,1.6-.3,2.5-.2.8.2,1.6.6,2.3,1.4,1.1,1.1,1.5,2.4,1.2,3.8-.2,1.4-1.2,2.9-2.8,4.5l-6.4,6.1ZM399.7,411.3l3.9-3.7c.9-.8,1.4-1.6,1.6-2.4.2-.7,0-1.4-.6-2.1-.6-.6-1.3-.9-2.1-.7-.8.2-1.6.7-2.5,1.5l-4,3.9-1.8-1.8,3.5-3.4c.8-.8,1.3-1.5,1.5-2.3.2-.7,0-1.4-.6-2-.6-.6-1.2-.8-2-.7-.7.1-1.5.6-2.3,1.4l-3.4,3.2,8.7,9.1Z"/>
    <path class="st0" d="M417.1,397.3l-13.6-11.4,2.1-2.5,11.5,9.6,6-7.1,2.1,1.8-8.1,9.6Z"/>
    <path class="st0" d="M430,376.3l5.6-8.3,2.3,1.6-7.5,11-14.7-10,7.3-10.7,2.3,1.6-5.4,8,10.1,6.9ZM423.6,372.3l5-7.3,2.2,1.5-5,7.3-2.2-1.5Z"/>
  </g>
</svg>